# xmcd
#
# Track frame offsets: 
#        150
#        19030
#        37521
#        58005
#        76994
#        96437
#        113370
#        128969
#        142632
#        160265
#        180913
#        198534
#
# Disc length: 2930 seconds
#
# Revision: 0
# Processed by: cddbd v1.5.2PL0 Copyright (c) Steve Scherf et al.
# Submitted via: ExactAudioCopyFreeDBPlugin 1.0
#
DISCID=880b700c
DTITLE=Holcomb, Drew and the Neighbors - Chasing Someday
DYEAR=2011
DGENRE=Alt. Rock
TTITLE0=Fire and Dynamite
TTITLE1=Anywhere But Here
TTITLE2=Live Forever
TTITLE3=Live Forever
TTITLE4=Your Love
TTITLE5=Someday
TTITLE6=Can't Get Enough of You
TTITLE7=Steal My History
TTITLE8=Baby Tomorrow
TTITLE9=Hourglass
TTITLE10=Day at a Time
TTITLE11=Weight of the World
EXTD=
EXTT0=
EXTT1=
EXTT2=
EXTT3=
EXTT4=
EXTT5=
EXTT6=
EXTT7=
EXTT8=
EXTT9=
EXTT10=
EXTT11=
PLAYORDER=
